PathFileType	4	(X/Y/Z)	/tmp/tmpfbxcaoho/Subject7/MarkerData/Take_2_10hz_segment_1.trc
DataRate	CameraRate	NumFrames	NumMarkers	Units	OrigDataRate	OrigDataStartFrame	OrigNumFrames
50.0148	50.0148	10	39	m	50.0148	859	1375
Frame#	Time	C7			CLAV			LANK			LASI			LBHD			LELB			LFHD			LFIN			LFRM			LHEE			LKNE			LPSI			LSHO			LTHI			LTIB			LTOE			LUPA			LWRA			LWRB			RANK			RASI			RBAK			RBHD			RELB			RFHD			RFIN			RFRM			RHEE			RKNE			RPSI			RSHO			RTHI			RTIB			RTOE			RUPA			RWRA			RWRB			STRN			T10		
		X1	Y1	Z1	X2	Y2	Z2	X3	Y3	Z3	X4	Y4	Z4	X5	Y5	Z5	X6	Y6	Z6	X7	Y7	Z7	X8	Y8	Z8	X9	Y9	Z9	X10	Y10	Z10	X11	Y11	Z11	X12	Y12	Z12	X13	Y13	Z13	X14	Y14	Z14	X15	Y15	Z15	X16	Y16	Z16	X17	Y17	Z17	X18	Y18	Z18	X19	Y19	Z19	X20	Y20	Z20	X21	Y21	Z21	X22	Y22	Z22	X23	Y23	Z23	X24	Y24	Z24	X25	Y25	Z25	X26	Y26	Z26	X27	Y27	Z27	X28	Y28	Z28	X29	Y29	Z29	X30	Y30	Z30	X31	Y31	Z31	X32	Y32	Z32	X33	Y33	Z33	X34	Y34	Z34	X35	Y35	Z35	X36	Y36	Z36	X37	Y37	Z37	X38	Y38	Z38	X39	Y39	Z39

860	57.1949	0.821909	1.34432	-0.907913	0.927808	1.25243	-0.84535	0.925569	0.12824	-1.18321	0.963662	0.844609	-1.01184	0.917081	1.507	-0.95923	1.17062	1.19883	-0.944577	1.03966	1.46266	-0.821865	1.17231	1.23865	-0.601378	1.19127	1.22603	-0.793805	0.875315	0.089878	-1.08769	1.06539	0.504523	-1.19129	0.813241	0.856958	-1.04275	0.932522	1.3194	-1.00704	1.01744	0.662491	-1.13553	0.977733	0.326072	-1.20128	1.06216	0.00985465	-1.25599	1.06071	1.24356	-1.01316	1.15952	1.1749	-0.65521	1.22595	1.23297	-0.66007	0.789914	0.0530029	-0.858682	0.911614	0.84113	-0.747264	0.711527	1.19523	-0.871857	0.849024	1.52057	-0.881794	0.646433	1.23731	-0.527259	0.962277	1.48389	-0.757803	0.946561	1.16666	-0.618495	0.762225	1.20101	-0.512957	0.729544	0.0186751	-0.939901	0.979109	0.402967	-0.754675	0.746206	0.843408	-0.797599	0.787819	1.3323	-0.760052	0.950024	0.62589	-0.722731	0.877548	0.211665	-0.789306	0.981199	0.0122985	-0.853305	0.687859	1.26726	-0.605871	0.856426	1.20576	-0.633846	0.892292	1.16013	-0.567564	0.971156	1.09871	-0.826744	0.749688	0.998029	-0.941528
861	57.2149	0.821333	1.34462	-0.901211	0.930475	1.25328	-0.843885	0.930761	0.132884	-1.1835	0.954351	0.845762	-1.01249	0.911112	1.5073	-0.957377	1.16588	1.17974	-0.954103	1.0449	1.46318	-0.830635	1.18002	1.19232	-0.607517	1.19217	1.19441	-0.801885	0.880826	0.0969413	-1.08819	1.06611	0.510166	-1.18773	0.802894	0.857481	-1.03733	0.932292	1.3164	-1.00723	1.0138	0.667058	-1.13216	0.980623	0.331116	-1.19971	1.06285	0.00970464	-1.25598	1.05617	1.2326	-1.01827	1.16297	1.13364	-0.666141	1.23125	1.18986	-0.66906	0.789879	0.0528707	-0.858469	0.913286	0.84165	-0.746941	0.712505	1.19689	-0.86235	0.849515	1.52084	-0.874475	0.645478	1.24715	-0.524512	0.972907	1.48374	-0.761075	0.952369	1.21036	-0.610155	0.765243	1.22784	-0.506437	0.729472	0.0186572	-0.939847	0.979227	0.403238	-0.754308	0.746008	0.843887	-0.789356	0.791186	1.3352	-0.757495	0.951784	0.626284	-0.721568	0.877481	0.211563	-0.789144	0.981207	0.0122757	-0.853366	0.689128	1.27342	-0.602765	0.859062	1.24054	-0.625322	0.899155	1.19785	-0.561074	0.971014	1.09644	-0.827347	0.745086	0.998004	-0.934021
862	57.2349	0.8209	1.34467	-0.892843	0.934918	1.25381	-0.844656	0.936606	0.138268	-1.18366	0.941822	0.846314	-1.01449	0.903208	1.5075	-0.955105	1.15769	1.16184	-0.97605	1.05084	1.46207	-0.845848	1.19731	1.14493	-0.630682	1.19558	1.16305	-0.824629	0.887506	0.104751	-1.08816	1.06575	0.516201	-1.18306	0.789127	0.857282	-1.02996	0.927336	1.31281	-1.00946	1.00798	0.672277	-1.12778	0.982808	0.336864	-1.19762	1.06384	0.00943349	-1.25604	1.04619	1.22242	-1.0308	1.17458	1.09232	-0.690739	1.24363	1.14649	-0.696327	0.789985	0.0527806	-0.858192	0.916746	0.841826	-0.747113	0.714503	1.19862	-0.84785	0.852226	1.52037	-0.86497	0.662931	1.25049	-0.511554	0.988486	1.482	-0.768085	0.967927	1.24709	-0.607541	0.784898	1.24741	-0.497159	0.729379	0.018616	-0.939777	0.98051	0.403145	-0.754591	0.747123	0.843844	-0.778644	0.800155	1.33671	-0.750832	0.955324	0.626511	-0.720937	0.87808	0.211189	-0.789415	0.981198	0.0122274	-0.853434	0.704328	1.27523	-0.591486	0.872126	1.2666	-0.619542	0.918627	1.22904	-0.5582	0.969468	1.09015	-0.828611	0.738829	0.997479	-0.92326
863	57.2549	0.820737	1.34437	-0.882982	0.939015	1.25224	-0.847463	0.941024	0.143208	-1.184	0.928518	0.845394	-1.01594	0.893716	1.50733	-0.95151	1.1446	1.14711	-1.00889	1.05521	1.45933	-0.866632	1.22345	1.09833	-0.672956	1.20025	1.13386	-0.862787	0.893112	0.11178	-1.08818	1.06227	0.522325	-1.17907	0.774902	0.855896	-1.02082	0.917353	1.30953	-1.01213	0.999611	0.677094	-1.12302	0.982743	0.34216	-1.19551	1.06466	0.00894626	-1.25642	1.03024	1.21411	-1.04835	1.19288	1.05236	-0.73222	1.26213	1.10485	-0.743511	0.790149	0.0526962	-0.857862	0.920846	0.841151	-0.746925	0.717668	1.20001	-0.829841	0.857288	1.51891	-0.854214	0.700333	1.25078	-0.490015	1.00634	1.47838	-0.779931	0.99324	1.27831	-0.612607	0.822598	1.26246	-0.487332	0.729273	0.0185785	-0.939683	0.982614	0.402551	-0.755023	0.749309	0.843209	-0.766746	0.813831	1.33682	-0.741763	0.959476	0.626189	-0.720181	0.879195	0.210756	-0.789595	0.981067	0.0122805	-0.853376	0.733595	1.27486	-0.573682	0.895672	1.28574	-0.618087	0.950715	1.2553	-0.561537	0.971672	1.08858	-0.834447	0.732098	0.996628	-0.90972
864	57.2749	0.82126	1.34333	-0.872271	0.941304	1.2485	-0.851457	0.943635	0.147853	-1.18499	0.915085	0.844045	-1.01508	0.883695	1.50663	-0.945986	1.12425	1.13552	-1.04876	1.05624	1.45522	-0.890582	1.25393	1.05502	-0.734968	1.20206	1.10782	-0.915184	0.897081	0.118843	-1.089	1.05522	0.529663	-1.17755	0.761255	0.854056	-1.00935	0.903222	1.30633	-1.01381	0.989206	0.681806	-1.11835	0.980412	0.347301	-1.19438	1.06476	0.00744799	-1.25691	1.00795	1.20679	-1.06787	1.21198	1.01503	-0.792864	1.28163	1.06676	-0.810266	0.790331	0.052591	-0.857467	0.925197	0.839816	-0.745186	0.722365	1.20093	-0.809433	0.864519	1.51644	-0.843757	0.756661	1.25166	-0.466178	1.0235	1.47304	-0.796531	1.02534	1.30268	-0.627415	0.876292	1.2746	-0.482005	0.729174	0.0185904	-0.939539	0.985271	0.40143	-0.755018	0.752332	0.842129	-0.753757	0.831103	1.33618	-0.732303	0.963654	0.625062	-0.718715	0.880517	0.210497	-0.789061	0.980865	0.0124965	-0.853125	0.776063	1.27463	-0.554063	0.927643	1.29916	-0.622682	0.992	1.27584	-0.57449	0.97582	1.09011	-0.843685	0.726113	0.995359	-0.893499
865	57.2949	0.822764	1.3416	-0.861482	0.942212	1.24367	-0.855694	0.948744	0.156945	-1.18772	0.900126	0.842985	-1.01157	0.874255	1.50542	-0.938918	1.0946	1.12612	-1.08964	1.0531	1.45052	-0.914572	1.27929	1.01647	-0.813705	1.19489	1.08502	-0.97643	0.904782	0.132332	-1.09134	1.04678	0.543344	-1.17975	0.747477	0.852252	-0.994671	0.886361	1.30289	-1.01361	0.977538	0.689802	-1.11427	0.979346	0.357125	-1.19527	1.06517	0.00582219	-1.25749	0.979508	1.20018	-1.08548	1.22304	0.980844	-0.8681	1.29249	1.03326	-0.892056	0.790547	0.0523886	-0.856974	0.930534	0.837973	-0.742485	0.729332	1.20134	-0.787466	0.873289	1.51335	-0.835116	0.827667	1.25292	-0.448466	1.03729	1.46702	-0.816043	1.06019	1.31683	-0.652744	0.940705	1.28205	-0.486471	0.729066	0.018638	-0.939356	0.98838	0.399861	-0.754242	0.756932	0.841009	-0.738661	0.850955	1.33512	-0.723914	0.968435	0.623308	-0.71657	0.881854	0.210137	-0.788055	0.980938	0.0125943	-0.853024	0.829106	1.27458	-0.538537	0.963801	1.30682	-0.634376	1.03747	1.28788	-0.598311	0.977803	1.08887	-0.85169	0.721553	0.994034	-0.873826
866	57.3149	0.82597	1.3395	-0.850747	0.942991	1.23871	-0.860122	0.962448	0.173758	-1.1935	0.882436	0.842431	-1.00597	0.866248	1.50378	-0.9308	1.05606	1.11798	-1.12639	1.04619	1.44624	-0.937179	1.28898	0.983703	-0.901233	1.17501	1.0655	-1.03901	0.923698	0.154877	-1.09628	1.03837	0.566053	-1.18527	0.733323	0.851127	-0.976239	0.868639	1.29968	-1.01116	0.963421	0.703887	-1.11178	0.982388	0.375196	-1.19951	1.07458	0.0084878	-1.2595	0.946393	1.19444	-1.09881	1.21947	0.951734	-0.94759	1.28608	1.00486	-0.979777	0.790805	0.0521096	-0.856425	0.937349	0.835566	-0.740387	0.740052	1.20143	-0.765164	0.883236	1.50971	-0.828678	0.907147	1.24955	-0.443821	1.0473	1.46136	-0.836863	1.09557	1.32087	-0.686047	1.00954	1.28134	-0.503543	0.728943	0.0187129	-0.939145	0.991904	0.397924	-0.752687	0.76406	0.84009	-0.721459	0.873743	1.33297	-0.71782	0.974578	0.621511	-0.713585	0.883291	0.209235	-0.786916	0.981276	0.0123967	-0.8532	0.889155	1.27138	-0.532119	1.00216	1.30784	-0.653332	1.08298	1.29043	-0.631502	0.978334	1.08549	-0.85886	0.718977	0.993243	-0.85071
867	57.3349	0.832494	1.33702	-0.84104	0.945614	1.23444	-0.865572	0.98385	0.185747	-1.20205	0.865187	0.840761	-0.999409	0.861802	1.50141	-0.923046	1.01101	1.11015	-1.15636	1.03814	1.44233	-0.958424	1.27946	0.957169	-0.988596	1.14282	1.04909	-1.09703	0.951198	0.168013	-1.1041	1.02507	0.583209	-1.18925	0.720838	0.850223	-0.955916	0.852641	1.29706	-1.0071	0.944696	0.715431	-1.11034	0.984915	0.388114	-1.20546	1.10505	0.0186325	-1.26645	0.911437	1.18947	-1.1079	1.2003	0.928957	-1.02226	1.26077	0.981654	-1.06398	0.791127	0.0519978	-0.855912	0.945461	0.832617	-0.740644	0.756019	1.20133	-0.744723	0.895184	1.5054	-0.825027	0.988073	1.23729	-0.455748	1.05533	1.45606	-0.858502	1.13184	1.31549	-0.72409	1.07731	1.26981	-0.533501	0.728842	0.0188845	-0.938916	0.996397	0.39568	-0.751273	0.774257	0.839174	-0.705114	0.900948	1.32913	-0.715398	0.982597	0.619884	-0.711018	0.885269	0.208117	-0.785851	0.981556	0.0124577	-0.853114	0.952141	1.26191	-0.537787	1.04317	1.30096	-0.679579	1.12646	1.2829	-0.671993	0.978748	1.08096	-0.867662	0.719993	0.9926	-0.826986
868	57.3549	0.843451	1.33384	-0.834625	0.950915	1.22945	-0.873751	1.0094	0.182053	-1.21537	0.850794	0.837195	-0.993456	0.863176	1.49756	-0.918576	0.962759	1.10203	-1.17976	1.03293	1.43767	-0.977829	1.25312	0.93623	-1.06929	1.10133	1.03483	-1.1479	0.980702	0.159615	-1.11771	1.00463	0.582023	-1.18738	0.711259	0.848395	-0.936694	0.840792	1.29404	-1.00345	0.924473	0.715554	-1.10659	0.984871	0.382871	-1.21138	1.14961	0.0286276	-1.28202	0.877658	1.184	-1.11404	1.16831	0.91098	-1.08806	1.2202	0.962382	-1.1391	0.791613	0.0521306	-0.855641	0.954369	0.829148	-0.743885	0.777218	1.20074	-0.729302	0.909417	1.50045	-0.825798	1.06391	1.21644	-0.483686	1.06331	1.45048	-0.880321	1.16889	1.29994	-0.766714	1.13979	1.24781	-0.574874	0.728779	0.0190685	-0.93874	1.00243	0.39319	-0.751715	0.787103	0.838248	-0.692068	0.932112	1.32329	-0.718317	0.99203	0.617977	-0.711149	0.888344	0.206873	-0.786004	0.981743	0.0124861	-0.852963	1.01342	1.24609	-0.555967	1.08514	1.28656	-0.713238	1.16679	1.26491	-0.718642	0.980081	1.07448	-0.878722	0.725943	0.991535	-0.806703
869	57.3749	0.858718	1.32919	-0.833466	0.958713	1.22222	-0.884753	1.02997	0.167671	-1.22885	0.839648	0.831671	-0.989011	0.870188	1.49127	-0.919801	0.915271	1.09344	-1.1973	1.03192	1.43098	-0.996674	1.21421	0.916619	-1.14052	1.05472	1.02083	-1.19099	1.00303	0.139096	-1.13272	0.980874	0.566238	-1.18126	0.705004	0.845234	-0.920581	0.834338	1.28917	-1.00207	0.905471	0.706069	-1.10146	0.981237	0.36449	-1.21514	1.18682	0.0319047	-1.29935	0.848049	1.17725	-1.11782	1.12739	0.894247	-1.14443	1.16975	0.943866	-1.2035	0.792468	0.052349	-0.855793	0.963091	0.824462	-0.749316	0.802049	1.19928	-0.720361	0.925779	1.49391	-0.832453	1.13005	1.19065	-0.523593	1.07294	1.44358	-0.902884	1.20448	1.27549	-0.814904	1.19385	1.21909	-0.624446	0.728762	0.0190021	-0.938672	1.01023	0.39033	-0.756121	0.800901	0.836823	-0.683126	0.964757	1.31463	-0.727876	1.00207	0.615138	-0.715	0.893554	0.204735	-0.789281	0.981903	0.0123038	-0.85295	1.06895	1.22627	-0.584461	1.12507	1.26617	-0.754025	1.20311	1.2389	-0.770097	0.98251	1.0651	-0.891894	0.735633	0.989972	-0.791801
